<?xml version="1.0" encoding="utf-8"?><!--Generator: Adobe Illustrator 25.2.3, SVG Export Plug-In . SVG Version: 6.00 Build 0)--><svg version="1.1" id="_x30_36_x5F_icconLOAD" xmlns="http://www.w3.org/2000/svg" xmlns:xlink="http://www.w3.org/1999/xlink" x="0px" y="0px" viewBox="0 0 100 100" style="enable-background:new 0 0 100 100" xml:space="preserve"><style type="text/css">.st0{fill:#6A7391;}</style><path class="st0" d="M85.4,85.3c9.4-9.4,14.6-22,14.6-35.3c0-27.5-22.4-50-50-50v9.7c22.2,0,40.3,18.1,40.3,40.3
	c0,10.8-4.2,20.9-11.8,28.5L77,80L63.8,66.8V100H97L83.9,86.8L85.4,85.3z"/><path class="st0" d="M9.7,50c0-10.8,4.2-20.9,11.8-28.5L23,20l13.2,13.2V0H2.9l13.2,13.2l-1.5,1.5C5.2,24.1,0,36.7,0,50
	c0,27.5,22.4,50,50,50v-9.7C27.8,90.3,9.7,72.2,9.7,50"/></svg>