<?xml version="1.0" encoding="utf-8"?>
<!-- Generator: Adobe Illustrator 24.3.0, SVG Export Plug-In . SVG Version: 6.00 Build 0)  -->
<svg version="1.1" id="圖層_1" xmlns="http://www.w3.org/2000/svg" xmlns:xlink="http://www.w3.org/1999/xlink" x="0px" y="0px"
	 viewBox="0 0 128 128" style="enable-background:new 0 0 128 128;" xml:space="preserve">
<style type="text/css">
	.st0{clip-path:url(#SVGID_2_);fill:#8AC7D7;}
	.st1{clip-path:url(#SVGID_2_);}
	.st2{clip-path:url(#SVGID_4_);fill:url(#SVGID_5_);}
	.st3{clip-path:url(#SVGID_4_);fill:url(#SVGID_6_);}
	.st4{clip-path:url(#SVGID_2_);fill:url(#SVGID_7_);}
	.st5{fill:#5A4A3C;}
	.st6{fill:none;stroke:#5A4A3C;stroke-width:5;stroke-linecap:round;stroke-linejoin:round;stroke-miterlimit:10;}
</style>
<g>
	<defs>
		<circle id="SVGID_1_" cx="64" cy="64" r="64"/>
	</defs>
	<clipPath id="SVGID_2_">
		<use xlink:href="#SVGID_1_"  style="overflow:visible;"/>
	</clipPath>
	<circle class="st0" cx="64" cy="64" r="64"/>
	<g class="st1">
		<defs>
			<path id="SVGID_3_" d="M90.8,119.9c2.8,20.3,12.1,40.9-26.8,40.9c-37.3,0-28.2-20.6-25.4-40.9c2.3-16.2,15-27.2,25.4-27.2
				S88.5,103.6,90.8,119.9z"/>
		</defs>
		<clipPath id="SVGID_4_">
			<use xlink:href="#SVGID_3_"  style="overflow:visible;"/>
		</clipPath>
		<radialGradient id="SVGID_5_" cx="56.1111" cy="119.3333" r="34.0741" gradientUnits="userSpaceOnUse">
			<stop  offset="0" style="stop-color:#FFE1C4"/>
			<stop  offset="0.5197" style="stop-color:#EAC8A7"/>
			<stop  offset="1" style="stop-color:#D9B491"/>
		</radialGradient>
		<path class="st2" d="M90.8,119.9c2.8,20.3,12.1,40.9-26.8,40.9c-37.3,0-28.2-20.6-25.4-40.9c2.3-16.2,15-27.2,25.4-27.2
			S88.5,103.6,90.8,119.9z"/>
		<linearGradient id="SVGID_6_" gradientUnits="userSpaceOnUse" x1="55.1941" y1="83.4726" x2="82.7926" y2="111.0711">
			<stop  offset="0" style="stop-color:#997F66"/>
			<stop  offset="1" style="stop-color:#997F66;stop-opacity:0"/>
		</linearGradient>
		<path class="st3" d="M91.9,102.2c-2.2,9.6-14.5,14.9-27.5,11.9c-12.9-3-21.6-13.2-19.4-22.8s14.5-14.9,27.5-11.9
			C85.5,82.5,94.2,92.7,91.9,102.2z"/>
	</g>
	<radialGradient id="SVGID_7_" cx="52.6627" cy="41.2551" r="50.6205" gradientUnits="userSpaceOnUse">
		<stop  offset="0" style="stop-color:#FFE1C4"/>
		<stop  offset="0.5197" style="stop-color:#EAC8A7"/>
		<stop  offset="1" style="stop-color:#D9B491"/>
	</radialGradient>
	<circle class="st4" cx="63.7" cy="63" r="42.3"/>
	<g class="st1">
		<circle class="st5" cx="45.9" cy="54.6" r="5.1"/>
		<circle class="st5" cx="81.5" cy="54.6" r="5.1"/>
		<path class="st6" d="M54.2,66.7c2.5,1.6,6,2.6,9.9,2.6c3.9,0,7.5-1,9.9-2.6"/>
	</g>
</g>
</svg>
